# Created by FreeCAD <https://www.freecad.org>
v 0.000000 -5.000000 0.000000
v 0.000000 -4.755282 -1.545085
v 0.000000 -4.755282 1.545085
v 0.000000 -4.045085 -2.938926
v 0.000000 -4.045085 2.938926
v 0.000000 -2.938926 -4.045085
v 0.000000 -2.938926 4.045085
v 0.000000 -1.545085 -4.755282
v 0.000000 -1.545085 4.755282
v 0.000000 0.000000 -5.000000
v 0.000000 0.000000 0.000000
v 0.000000 0.000000 5.000000
v 0.000000 1.545085 -4.755282
v 0.000000 1.545085 4.755282
v 0.000000 2.938926 -4.045085
v 0.000000 2.938926 4.045085
v 0.000000 4.045085 -2.938926
v 0.000000 4.045085 2.938926
v 0.000000 4.755282 -1.545085
v 0.000000 4.755282 1.545085
v 0.000000 5.000000 0.000000
v 70.000000 -7.500000 0.000000
v 70.000000 -7.132924 -2.317627
v 70.000000 -7.132924 2.317627
v 70.000000 -6.067627 -4.408390
v 70.000000 -6.067627 4.408390
v 70.000000 -5.000000 0.000000
v 70.000000 -4.755282 -1.545085
v 70.000000 -4.755282 1.545085
v 70.000000 -4.408390 -6.067627
v 70.000000 -4.408390 6.067627
v 70.000000 -4.045085 -2.938926
v 70.000000 -4.045085 2.938926
v 70.000000 -2.938926 -4.045085
v 70.000000 -2.938926 4.045085
v 70.000000 -2.317627 -7.132924
v 70.000000 -2.317627 7.132924
v 70.000000 -1.545085 -4.755282
v 70.000000 -1.545085 4.755282
v 70.000000 0.000000 -7.500000
v 70.000000 0.000000 -5.000000
v 70.000000 0.000000 5.000000
v 70.000000 0.000000 7.500000
v 70.000000 1.545085 -4.755282
v 70.000000 1.545085 4.755282
v 70.000000 2.317627 -7.132924
v 70.000000 2.317627 7.132924
v 70.000000 2.938926 -4.045085
v 70.000000 2.938926 4.045085
v 70.000000 4.045085 -2.938926
v 70.000000 4.045085 2.938926
v 70.000000 4.408390 -6.067627
v 70.000000 4.408390 6.067627
v 70.000000 4.755282 -1.545085
v 70.000000 4.755282 1.545085
v 70.000000 5.000000 0.000000
v 70.000000 6.067627 -4.408390
v 70.000000 6.067627 4.408390
v 70.000000 7.132924 -2.317627
v 70.000000 7.132924 2.317627
v 70.000000 7.500000 0.000000
v 100.000000 0.000000 0.000000
v 100.358749 -7.311333 -2.500000
v 100.358749 -7.311333 2.500000
v 100.358749 7.311333 -2.500000
v 100.358749 7.311333 2.500000
v 104.579948 0.000000 -2.500000
v 104.579948 0.000000 2.500000
v 104.848244 -7.311333 -2.500000
v 104.848244 -7.311333 2.500000
v 104.848244 7.311333 -2.500000
v 104.848244 7.311333 2.500000
v 106.797508 -3.935106 -2.500000
v 106.797508 -3.935106 2.500000
v 106.797508 3.935106 -2.500000
v 106.797508 3.935106 2.500000
v 108.746773 -7.311333 -2.500000
v 108.746773 -7.311333 2.500000
v 108.746773 7.311333 -2.500000
v 108.746773 7.311333 2.500000
v 109.015068 0.000000 -2.500000
v 109.015068 0.000000 2.500000
v 113.236267 -7.311333 -2.500000
v 113.236267 -7.311333 2.500000
v 113.236267 7.311333 -2.500000
v 113.236267 7.311333 2.500000
vn 0.000000 1.000000 0.000000
vn 0.000000 1.000000 0.000000
vn 0.866026 0.500000 -0.000000
vn 0.866026 0.500000 0.000000
vn -0.866026 0.500000 0.000000
vn -0.866026 0.500000 0.000000
vn 0.000000 1.000000 0.000000
vn 0.000000 1.000000 0.000000
vn 0.866025 -0.500000 0.000000
vn 0.866025 -0.500000 0.000000
vn 0.866025 0.500000 -0.000000
vn 0.866025 0.500000 0.000000
vn 0.000000 -1.000000 0.000000
vn 0.000000 -1.000000 0.000000
vn -0.866026 -0.500000 0.000000
vn -0.866026 -0.500000 0.000000
vn 0.866026 -0.500000 0.000000
vn 0.866026 -0.500000 0.000000
vn 0.000000 0.000000 -1.000000
vn -0.000000 0.000000 -1.000000
vn -0.000000 0.000000 -1.000000
vn 0.000000 0.000000 -1.000000
vn 0.000000 0.000000 -1.000000
vn 0.000000 0.000000 -1.000000
vn -0.000000 0.000000 -1.000000
vn 0.000000 0.000000 -1.000000
vn 0.000000 0.000000 -1.000000
vn 0.000000 0.000000 -1.000000
vn 0.000000 0.000000 1.000000
vn 0.000000 0.000000 1.000000
vn -0.000000 0.000000 1.000000
vn 0.000000 0.000000 1.000000
vn 0.000000 0.000000 1.000000
vn -0.000000 0.000000 1.000000
vn -0.000000 0.000000 1.000000
vn 0.000000 0.000000 1.000000
vn 0.000000 0.000000 1.000000
vn 0.000000 0.000000 1.000000
vn 0.000000 -1.000000 0.000000
vn 0.000000 -1.000000 0.000000
vn -0.866025 0.500000 0.000000
vn -0.866025 0.500000 0.000000
vn -0.866025 -0.500000 0.000000
vn -0.866025 -0.500000 0.000000
vn -1.000000 0.000000 0.000000
vn -1.000000 0.000000 0.000000
vn -1.000000 0.000000 0.000000
vn -1.000000 0.000000 0.000000
vn -1.000000 0.000000 -0.000000
vn -1.000000 0.000000 0.000000
vn -1.000000 0.000000 0.000000
vn -1.000000 0.000000 0.000000
vn -1.000000 -0.000000 0.000000
vn -1.000000 0.000000 0.000000
vn -1.000000 0.000000 0.000000
vn -1.000000 0.000000 0.000000
vn -1.000000 0.000000 0.000000
vn -1.000000 0.000000 0.000000
vn -1.000000 0.000000 0.000000
vn -1.000000 0.000000 0.000000
vn -1.000000 0.000000 0.000000
vn -1.000000 0.000000 0.000000
vn -1.000000 0.000000 0.000000
vn -1.000000 0.000000 0.000000
vn 0.000000 0.156435 0.987688
vn 0.000000 0.453990 0.891007
vn 0.000000 0.707107 0.707107
vn 0.000000 0.891007 0.453990
vn 0.000000 0.987688 0.156435
vn 0.000000 0.987688 -0.156435
vn 0.000000 0.891007 -0.453990
vn 0.000000 0.707107 -0.707107
vn 0.000000 0.453990 -0.891007
vn 0.000000 0.156435 -0.987688
vn 0.000000 -0.156435 -0.987688
vn 0.000000 -0.453990 -0.891007
vn 0.000000 -0.707107 -0.707107
vn 0.000000 -0.891007 -0.453990
vn 0.000000 -0.987688 -0.156435
vn 0.000000 -0.987688 0.156435
vn 0.000000 -0.891007 0.453990
vn 0.000000 -0.707107 0.707107
vn 0.000000 -0.453990 0.891007
vn 0.000000 -0.156435 0.987688
vn 0.000000 -0.156435 0.987688
vn 0.000000 -0.453990 0.891007
vn 0.000000 -0.707107 0.707107
vn 0.000000 -0.891007 0.453990
vn 0.000000 -0.987688 0.156435
vn 0.000000 -0.987688 -0.156435
vn 0.000000 -0.891007 -0.453990
vn 0.000000 -0.707107 -0.707107
vn 0.000000 -0.453990 -0.891007
vn 0.000000 -0.156435 -0.987688
vn 0.000000 0.156435 -0.987688
vn 0.000000 0.453990 -0.891007
vn 0.000000 0.707107 -0.707107
vn 0.000000 0.891007 -0.453990
vn 0.000000 0.987688 -0.156435
vn 0.000000 0.987688 0.156435
vn 0.000000 0.891007 0.453990
vn 0.000000 0.707107 0.707107
vn 0.000000 0.453990 0.891007
vn 0.000000 0.156435 0.987688
vn -1.000000 0.000000 0.000000
vn -1.000000 0.000000 0.000000
vn -1.000000 0.000000 0.000000
vn -1.000000 0.000000 -0.000000
vn -1.000000 0.000000 0.000000
vn -1.000000 0.000000 0.000000
vn -1.000000 0.000000 0.000000
vn -1.000000 0.000000 -0.000000
vn -1.000000 0.000000 0.000000
vn -1.000000 -0.000000 0.000000
vn -1.000000 0.000000 0.000000
vn -1.000000 0.000000 0.000000
vn -1.000000 -0.000000 0.000000
vn -1.000000 -0.000000 0.000000
vn -1.000000 0.000000 0.000000
vn -1.000000 0.000000 0.000000
vn -1.000000 0.000000 0.000000
vn -1.000000 0.000000 -0.000000
vn -1.000000 0.000000 -0.000000
vn -1.000000 0.000000 0.000000
vn -1.000000 0.000000 0.000000
vn -1.000000 0.000000 0.000000
vn -1.000000 0.000000 0.000000
vn -1.000000 0.000000 0.000000
vn -1.000000 0.000000 0.000000
vn -1.000000 0.000000 0.000000
vn -1.000000 0.000000 0.000000
vn -1.000000 0.000000 0.000000
vn -1.000000 0.000000 0.000000
vn -1.000000 -0.000000 0.000000
vn -1.000000 0.000000 0.000000
vn -1.000000 0.000000 0.000000
vn -1.000000 -0.000000 0.000000
vn -1.000000 0.000000 0.000000
vn -1.000000 0.000000 0.000000
vn -1.000000 0.000000 0.000000
vn -1.000000 0.000000 0.000000
vn -1.000000 0.000000 0.000000
vn -1.000000 0.000000 0.000000
vn -1.000000 -0.000000 0.000000
vn 0.239722 0.151873 -0.958889
vn 0.239722 0.440753 -0.865026
vn 0.239722 0.686489 -0.686489
vn 0.239722 0.865026 -0.440753
vn 0.239722 0.958889 -0.151873
vn 0.239722 0.958889 0.151873
vn 0.239722 0.865026 0.440753
vn 0.239722 0.686489 0.686489
vn 0.239722 0.440753 0.865026
vn 0.239722 0.151873 0.958889
vn 0.239722 -0.151873 0.958889
vn 0.239722 -0.440753 0.865026
vn 0.239722 -0.686489 0.686489
vn 0.239722 -0.865026 0.440753
vn 0.239722 -0.958889 0.151873
vn 0.239722 -0.958889 -0.151873
vn 0.239722 -0.865026 -0.440753
vn 0.239722 -0.686489 -0.686489
vn 0.239722 -0.440753 -0.865026
vn 0.239722 -0.151873 -0.958889
f 72//1 65//1 66//1
f 65//2 72//2 71//2
f 75//3 72//3 76//3
f 72//4 75//4 71//4
f 80//5 75//5 76//5
f 75//6 80//6 79//6
f 86//7 79//7 80//7
f 79//8 86//8 85//8
f 81//9 86//9 82//9
f 86//10 81//10 85//10
f 83//11 82//11 84//11
f 82//12 83//12 81//12
f 78//13 83//13 84//13
f 83//14 78//14 77//14
f 74//15 77//15 78//15
f 77//16 74//16 73//16
f 69//17 74//17 70//17
f 74//18 69//18 73//18
f 73//19 83//19 77//19
f 73//20 63//20 67//20
f 81//21 73//21 75//21
f 75//22 85//22 81//22
f 75//23 65//23 71//23
f 63//24 73//24 69//24
f 85//25 75//25 79//25
f 73//26 67//26 75//26
f 65//27 75//27 67//27
f 83//28 73//28 81//28
f 74//29 64//29 70//29
f 76//30 86//30 80//30
f 68//31 74//31 76//31
f 76//32 66//32 68//32
f 82//33 76//33 74//33
f 74//34 84//34 82//34
f 66//35 76//35 72//35
f 84//36 74//36 78//36
f 86//37 76//37 82//37
f 64//38 74//38 68//38
f 64//39 69//39 70//39
f 69//40 64//40 63//40
f 68//41 63//41 64//41
f 63//42 68//42 67//42
f 66//43 67//43 68//43
f 67//44 66//44 65//44
f 17//45 11//45 19//45
f 11//46 17//46 15//46
f 11//47 15//47 13//47
f 11//48 13//48 10//48
f 11//49 10//49 8//49
f 11//50 8//50 6//50
f 11//51 6//51 4//51
f 11//52 4//52 2//52
f 11//53 2//53 1//53
f 11//54 1//54 3//54
f 11//55 3//55 5//55
f 11//56 5//56 7//56
f 11//57 7//57 9//57
f 11//58 9//58 12//58
f 11//59 12//59 14//59
f 11//60 14//60 16//60
f 11//61 16//61 18//61
f 11//62 18//62 20//62
f 11//63 20//63 21//63
f 11//64 21//64 19//64
f 45//65 12//65 42//65
f 49//66 14//66 45//66
f 51//67 16//67 49//67
f 55//68 18//68 51//68
f 56//69 20//69 55//69
f 54//70 21//70 56//70
f 50//71 19//71 54//71
f 48//72 17//72 50//72
f 44//73 15//73 48//73
f 41//74 13//74 44//74
f 38//75 10//75 41//75
f 34//76 8//76 38//76
f 32//77 6//77 34//77
f 28//78 4//78 32//78
f 27//79 2//79 28//79
f 29//80 1//80 27//80
f 33//81 3//81 29//81
f 35//82 5//82 33//82
f 39//83 7//83 35//83
f 42//84 9//84 39//84
f 9//85 42//85 12//85
f 7//86 39//86 9//86
f 5//87 35//87 7//87
f 3//88 33//88 5//88
f 1//89 29//89 3//89
f 2//90 27//90 1//90
f 4//91 28//91 2//91
f 6//92 32//92 4//92
f 8//93 34//93 6//93
f 10//94 38//94 8//94
f 13//95 41//95 10//95
f 15//96 44//96 13//96
f 17//97 48//97 15//97
f 19//98 50//98 17//98
f 21//99 54//99 19//99
f 20//100 56//100 21//100
f 18//101 55//101 20//101
f 16//102 51//102 18//102
f 14//103 49//103 16//103
f 12//104 45//104 14//104
f 44//105 52//105 46//105
f 41//106 46//106 40//106
f 46//107 41//107 44//107
f 38//108 40//108 36//108
f 32//109 30//109 25//109
f 28//110 25//110 23//110
f 40//111 38//111 41//111
f 34//112 36//112 30//112
f 25//113 28//113 32//113
f 27//114 23//114 22//114
f 36//115 34//115 38//115
f 23//116 27//116 28//116
f 29//117 22//117 24//117
f 33//118 24//118 26//118
f 30//119 32//119 34//119
f 24//120 33//120 29//120
f 55//121 61//121 56//121
f 56//122 59//122 54//122
f 54//123 57//123 50//123
f 48//124 57//124 52//124
f 22//125 29//125 27//125
f 35//126 26//126 31//126
f 45//127 53//127 49//127
f 49//128 58//128 51//128
f 59//129 56//129 61//129
f 57//130 48//130 50//130
f 26//131 35//131 33//131
f 39//132 31//132 37//132
f 42//133 47//133 45//133
f 58//134 49//134 53//134
f 57//135 54//135 59//135
f 31//136 39//136 35//136
f 53//137 45//137 47//137
f 55//138 58//138 60//138
f 52//139 44//139 48//139
f 42//140 37//140 43//140
f 58//141 55//141 51//141
f 37//142 42//142 39//142
f 61//143 55//143 60//143
f 47//144 42//144 43//144
f 62//145 40//145 46//145
f 62//146 46//146 52//146
f 62//147 52//147 57//147
f 62//148 57//148 59//148
f 62//149 59//149 61//149
f 62//150 61//150 60//150
f 62//151 60//151 58//151
f 62//152 58//152 53//152
f 62//153 53//153 47//153
f 62//154 47//154 43//154
f 62//155 43//155 37//155
f 62//156 37//156 31//156
f 62//157 31//157 26//157
f 62//158 26//158 24//158
f 62//159 24//159 22//159
f 62//160 22//160 23//160
f 62//161 23//161 25//161
f 62//162 25//162 30//162
f 62//163 30//163 36//163
f 62//164 36//164 40//164
