# Created by FreeCAD <https://www.freecad.org>
v -7.500000 70.000000 0.000000
v -7.500000 106.282707 -2.860186
v -7.500000 106.282707 2.139814
v -7.500000 109.793159 -2.860186
v -7.500000 109.793159 2.139814
v -7.500000 121.282707 -2.860186
v -7.500000 121.282707 2.139814
v -7.132924 70.000000 -2.317627
v -7.132924 70.000000 2.317627
v -6.067627 70.000000 -4.408390
v -6.067627 70.000000 4.408390
v -5.000000 0.000000 0.000000
v -5.000000 70.000000 0.000000
v -4.755282 0.000000 -1.545085
v -4.755282 0.000000 1.545085
v -4.755282 70.000000 -1.545085
v -4.755282 70.000000 1.545085
v -4.599755 109.793159 -2.860186
v -4.599755 109.793159 2.139814
v -4.408390 70.000000 -6.067627
v -4.408390 70.000000 6.067627
v -4.188746 109.852066 -2.860186
v -4.188746 109.852066 2.139814
v -4.045085 0.000000 -2.938926
v -4.045085 0.000000 2.938926
v -4.045085 70.000000 -2.938926
v -4.045085 70.000000 2.938926
v -3.810831 110.024048 -2.860186
v -3.810831 110.024048 2.139814
v -3.651567 121.282707 -2.860186
v -3.651567 121.282707 2.139814
v -3.496439 110.295265 -2.860186
v -3.496439 110.295265 2.139814
v -3.270884 110.643867 -2.860186
v -3.270884 110.643867 2.139814
v -3.265014 111.856049 -2.860186
v -3.265014 111.856049 2.139814
v -3.152328 111.041794 -2.860186
v -3.152328 111.041794 2.139814
v -3.150318 111.456993 -2.860186
v -3.150318 111.456993 2.139814
v -2.938926 0.000000 -4.045085
v -2.938926 0.000000 4.045085
v -2.938926 70.000000 -4.045085
v -2.938926 70.000000 4.045085
v -2.913647 106.282707 -2.860186
v -2.913647 106.282707 2.139814
v -2.317627 70.000000 -7.132924
v -2.317627 70.000000 7.132924
v -1.932458 106.414711 -2.860186
v -1.932458 106.414711 2.139814
v -1.545085 0.000000 -4.755282
v -1.545085 0.000000 4.755282
v -1.545085 70.000000 -4.755282
v -1.545085 70.000000 4.755282
v -1.021037 106.801315 -2.860186
v -1.021037 106.801315 2.139814
v -0.360186 113.956421 -2.860186
v -0.360186 113.956421 2.139814
v -0.244192 107.415047 -2.860186
v -0.244192 107.415047 2.139814
v 0.000000 0.000000 -5.000000
v 0.000000 0.000000 0.000000
v 0.000000 0.000000 5.000000
v 0.000000 70.000000 -7.500000
v 0.000000 70.000000 -5.000000
v 0.000000 70.000000 5.000000
v 0.000000 70.000000 7.500000
v 0.000000 100.000000 0.000000
v 0.342841 108.212265 -2.860186
v 0.342841 108.212265 2.139814
v 1.545085 0.000000 -4.755282
v 1.545085 0.000000 4.755282
v 1.545085 70.000000 -4.755282
v 1.545085 70.000000 4.755282
v 2.317627 70.000000 -7.132924
v 2.317627 70.000000 7.132924
v 2.938926 0.000000 -4.045085
v 2.938926 0.000000 4.045085
v 2.938926 70.000000 -4.045085
v 2.938926 70.000000 4.045085
v 3.651567 121.282707 -2.860186
v 3.651567 121.282707 2.139814
v 4.045085 0.000000 -2.938926
v 4.045085 0.000000 2.938926
v 4.045085 70.000000 -2.938926
v 4.045085 70.000000 2.938926
v 4.408390 70.000000 -6.067627
v 4.408390 70.000000 6.067627
v 4.755282 0.000000 -1.545085
v 4.755282 0.000000 1.545085
v 4.755282 70.000000 -1.545085
v 4.755282 70.000000 1.545085
v 5.000000 0.000000 0.000000
v 5.000000 70.000000 0.000000
v 6.067627 70.000000 -4.408390
v 6.067627 70.000000 4.408390
v 7.132924 70.000000 -2.317627
v 7.132924 70.000000 2.317627
v 7.500000 70.000000 0.000000
v 7.500000 121.282707 -2.860186
v 7.500000 121.282707 2.139814
vn 0.000000 -1.000000 -0.000000
vn 0.000000 -1.000000 0.000000
vn 0.805245 -0.592943 0.000000
vn 0.619913 -0.784670 0.000000
vn 0.390499 -0.920603 0.000000
vn 0.133333 -0.991071 0.000000
vn 0.133333 -0.991071 0.000000
vn 0.390499 -0.920603 0.000000
vn 0.619913 -0.784670 0.000000
vn 0.805245 -0.592943 0.000000
vn 0.877109 -0.480291 0.000000
vn 0.877109 -0.480291 0.000000
vn 0.000000 1.000000 0.000000
vn 0.000000 1.000000 0.000000
vn -0.877109 0.480291 0.000000
vn -0.877109 0.480291 0.000000
vn 0.912175 0.409800 0.000000
vn 0.912175 0.409800 0.000000
vn 0.000000 1.000000 0.000000
vn 0.000000 1.000000 0.000000
vn -0.912175 -0.409800 0.000000
vn -0.912175 -0.409800 0.000000
vn -0.000000 0.000000 1.000000
vn 0.000000 0.000000 1.000000
vn 0.000000 0.000000 1.000000
vn -0.000000 0.000000 1.000000
vn -0.000000 0.000000 1.000000
vn 0.000000 0.000000 1.000000
vn -0.000000 0.000000 1.000000
vn 0.000000 0.000000 1.000000
vn 0.000000 0.000000 1.000000
vn 0.000000 0.000000 1.000000
vn 0.000000 0.000000 1.000000
vn 0.000000 0.000000 1.000000
vn 0.000000 0.000000 1.000000
vn 0.000000 0.000000 1.000000
vn 0.000000 0.000000 1.000000
vn 0.000000 0.000000 1.000000
vn 0.000000 0.000000 1.000000
vn 0.000000 0.000000 1.000000
vn -0.000000 -0.000000 -1.000000
vn 0.000000 0.000000 -1.000000
vn 0.000000 0.000000 -1.000000
vn 0.000000 -0.000000 -1.000000
vn 0.000000 0.000000 -1.000000
vn -0.000000 0.000000 -1.000000
vn 0.000000 -0.000000 -1.000000
vn 0.000000 0.000000 -1.000000
vn 0.000000 0.000000 -1.000000
vn 0.000000 0.000000 -1.000000
vn 0.000000 0.000000 -1.000000
vn 0.000000 0.000000 -1.000000
vn 0.000000 0.000000 -1.000000
vn 0.000000 0.000000 -1.000000
vn -0.000000 0.000000 -1.000000
vn 0.000000 -0.000000 -1.000000
vn 0.000000 0.000000 -1.000000
vn 0.000000 -0.000000 -1.000000
vn -0.141872 0.989885 0.000000
vn -0.414207 0.910183 0.000000
vn -0.653202 0.757184 0.000000
vn -0.839583 0.543231 0.000000
vn -0.958369 0.285531 0.000000
vn -0.999988 0.004843 0.000000
vn -0.961090 -0.276235 -0.000000
vn -0.961090 -0.276235 0.000000
vn -0.999988 0.004843 0.000000
vn -0.958369 0.285531 0.000000
vn -0.839583 0.543231 0.000000
vn -0.653202 0.757184 0.000000
vn -0.414207 0.910183 0.000000
vn -0.141872 0.989885 0.000000
vn 0.000000 1.000000 0.000000
vn 0.000000 1.000000 0.000000
vn -1.000000 0.000000 0.000000
vn -1.000000 -0.000000 0.000000
vn 0.000000 -1.000000 -0.000000
vn 0.000000 -1.000000 0.000000
vn 0.000000 -1.000000 0.000000
vn 0.000000 -1.000000 0.000000
vn 0.000000 -1.000000 0.000000
vn 0.000000 -1.000000 0.000000
vn 0.000000 -1.000000 0.000000
vn 0.000000 -1.000000 0.000000
vn 0.000000 -1.000000 0.000000
vn -0.000000 -1.000000 0.000000
vn 0.000000 -1.000000 0.000000
vn 0.000000 -1.000000 0.000000
vn 0.000000 -1.000000 0.000000
vn 0.000000 -1.000000 -0.000000
vn 0.000000 -1.000000 0.000000
vn 0.000000 -1.000000 0.000000
vn 0.000000 -1.000000 0.000000
vn 0.000000 -1.000000 0.000000
vn 0.000000 -1.000000 0.000000
vn 0.000000 -1.000000 0.000000
vn 0.156435 0.000000 -0.987688
vn 0.453990 0.000000 -0.891007
vn 0.707107 0.000000 -0.707107
vn 0.891007 0.000000 -0.453990
vn 0.987688 0.000000 -0.156435
vn 0.987688 0.000000 0.156435
vn 0.891007 0.000000 0.453990
vn 0.707107 0.000000 0.707107
vn 0.453990 0.000000 0.891007
vn 0.156435 0.000000 0.987688
vn -0.156435 0.000000 0.987688
vn -0.453990 0.000000 0.891007
vn -0.707107 0.000000 0.707107
vn -0.891007 0.000000 0.453990
vn -0.987688 0.000000 0.156435
vn -0.987688 0.000000 -0.156435
vn -0.891007 0.000000 -0.453990
vn -0.707107 0.000000 -0.707107
vn -0.453990 0.000000 -0.891007
vn -0.156435 0.000000 -0.987688
vn -0.156435 0.000000 -0.987688
vn -0.453990 0.000000 -0.891007
vn -0.707107 0.000000 -0.707107
vn -0.891007 0.000000 -0.453990
vn -0.987688 0.000000 -0.156435
vn -0.987688 0.000000 0.156435
vn -0.891007 0.000000 0.453990
vn -0.707107 0.000000 0.707107
vn -0.453990 0.000000 0.891007
vn -0.156435 0.000000 0.987688
vn 0.156435 0.000000 0.987688
vn 0.453990 0.000000 0.891007
vn 0.707107 0.000000 0.707107
vn 0.891007 0.000000 0.453990
vn 0.987688 0.000000 0.156435
vn 0.987688 0.000000 -0.156435
vn 0.891007 0.000000 -0.453990
vn 0.707107 0.000000 -0.707107
vn 0.453990 0.000000 -0.891007
vn 0.156435 0.000000 -0.987688
vn 0.000000 -1.000000 0.000000
vn 0.000000 -1.000000 0.000000
vn 0.000000 -1.000000 0.000000
vn 0.000000 -1.000000 0.000000
vn 0.000000 -1.000000 0.000000
vn 0.000000 -1.000000 0.000000
vn 0.000000 -1.000000 -0.000000
vn 0.000000 -1.000000 0.000000
vn 0.000000 -1.000000 0.000000
vn 0.000000 -1.000000 0.000000
vn 0.000000 -1.000000 -0.000000
vn 0.000000 -1.000000 0.000000
vn -0.000000 -1.000000 0.000000
vn -0.000000 -1.000000 0.000000
vn 0.000000 -1.000000 0.000000
vn 0.000000 -1.000000 0.000000
vn 0.000000 -1.000000 0.000000
vn 0.000000 -1.000000 0.000000
vn 0.000000 -1.000000 0.000000
vn 0.000000 -1.000000 0.000000
vn 0.000000 -1.000000 0.000000
vn 0.000000 -1.000000 0.000000
vn 0.000000 -1.000000 0.000000
vn 0.000000 -1.000000 0.000000
vn 0.000000 -1.000000 -0.000000
vn 0.000000 -1.000000 0.000000
vn 0.000000 -1.000000 0.000000
vn 0.000000 -1.000000 0.000000
vn 0.000000 -1.000000 0.000000
vn -0.000000 -1.000000 0.000000
vn 0.000000 -1.000000 -0.000000
vn 0.000000 -1.000000 0.000000
vn -0.000000 -1.000000 0.000000
vn 0.000000 -1.000000 0.000000
vn 0.000000 -1.000000 0.000000
vn 0.000000 -1.000000 -0.000000
vn 0.000000 -1.000000 0.000000
vn 0.000000 -1.000000 0.000000
vn 0.000000 -1.000000 0.000000
vn -0.000000 -1.000000 0.000000
vn 0.958889 0.239722 -0.151873
vn 0.865026 0.239722 -0.440753
vn 0.686489 0.239722 -0.686489
vn 0.440753 0.239722 -0.865026
vn 0.151873 0.239722 -0.958889
vn -0.151873 0.239722 -0.958889
vn -0.440753 0.239722 -0.865026
vn -0.686489 0.239722 -0.686489
vn -0.865026 0.239722 -0.440753
vn -0.958889 0.239722 -0.151873
vn -0.958889 0.239722 0.151873
vn -0.865026 0.239722 0.440753
vn -0.686489 0.239722 0.686489
vn -0.440753 0.239722 0.865026
vn -0.151873 0.239722 0.958889
vn 0.151873 0.239722 0.958889
vn 0.440753 0.239722 0.865026
vn 0.686489 0.239722 0.686489
vn 0.865026 0.239722 0.440753
vn 0.958889 0.239722 0.151873
f 47//1 2//1 46//1
f 2//2 47//2 3//2
f 61//3 70//3 71//3
f 57//4 60//4 61//4
f 51//5 56//5 57//5
f 47//6 50//6 51//6
f 50//7 47//7 46//7
f 56//8 51//8 50//8
f 60//9 57//9 56//9
f 70//10 61//10 60//10
f 101//11 71//11 70//11
f 71//12 101//12 102//12
f 82//13 102//13 101//13
f 102//14 82//14 83//14
f 58//15 83//15 82//15
f 83//16 58//16 59//16
f 30//17 59//17 58//17
f 59//18 30//18 31//18
f 6//19 31//19 30//19
f 31//20 6//20 7//20
f 36//21 7//21 6//21
f 7//22 36//22 37//22
f 29//23 57//23 33//23
f 31//24 37//24 59//24
f 19//25 3//25 47//25
f 33//26 57//26 35//26
f 39//27 57//27 59//27
f 37//28 31//28 7//28
f 19//29 47//29 23//29
f 47//30 29//30 23//30
f 57//31 39//31 35//31
f 59//32 37//32 41//32
f 29//33 47//33 51//33
f 59//34 41//34 39//34
f 59//35 102//35 83//35
f 61//36 59//36 57//36
f 57//37 29//37 51//37
f 59//38 61//38 71//38
f 102//39 59//39 71//39
f 3//40 19//40 5//40
f 30//41 36//41 6//41
f 28//42 56//42 50//42
f 36//43 58//43 40//43
f 38//44 56//44 34//44
f 56//45 28//45 32//45
f 18//46 2//46 4//46
f 40//47 58//47 38//47
f 56//48 32//48 34//48
f 46//49 28//49 50//49
f 2//50 18//50 46//50
f 60//51 58//51 70//51
f 58//52 101//52 70//52
f 56//53 38//53 58//53
f 46//54 18//54 22//54
f 101//55 58//55 82//55
f 28//56 46//56 22//56
f 36//57 30//57 58//57
f 58//58 60//58 56//58
f 19//59 22//59 18//59
f 23//60 28//60 22//60
f 29//61 32//61 28//61
f 33//62 34//62 32//62
f 35//63 38//63 34//63
f 39//64 40//64 38//64
f 41//65 36//65 40//65
f 36//66 41//66 37//66
f 40//67 39//67 41//67
f 38//68 35//68 39//68
f 34//69 33//69 35//69
f 32//70 29//70 33//70
f 28//71 23//71 29//71
f 22//72 19//72 23//72
f 4//73 19//73 18//73
f 19//74 4//74 5//74
f 2//75 5//75 4//75
f 5//76 2//76 3//76
f 85//77 63//77 91//77
f 63//78 85//78 79//78
f 63//79 79//79 73//79
f 63//80 73//80 64//80
f 63//81 64//81 53//81
f 63//82 53//82 43//82
f 63//83 43//83 25//83
f 63//84 25//84 15//84
f 63//85 15//85 12//85
f 63//86 12//86 14//86
f 63//87 14//87 24//87
f 63//88 24//88 42//88
f 63//89 42//89 52//89
f 63//90 52//90 62//90
f 63//91 62//91 72//91
f 63//92 72//92 78//92
f 63//93 78//93 84//93
f 63//94 84//94 90//94
f 63//95 90//95 94//95
f 63//96 94//96 91//96
f 74//97 62//97 66//97
f 80//98 72//98 74//98
f 86//99 78//99 80//99
f 92//100 84//100 86//100
f 95//101 90//101 92//101
f 93//102 94//102 95//102
f 87//103 91//103 93//103
f 81//104 85//104 87//104
f 75//105 79//105 81//105
f 67//106 73//106 75//106
f 55//107 64//107 67//107
f 45//108 53//108 55//108
f 27//109 43//109 45//109
f 17//110 25//110 27//110
f 13//111 15//111 17//111
f 16//112 12//112 13//112
f 26//113 14//113 16//113
f 44//114 24//114 26//114
f 54//115 42//115 44//115
f 66//116 52//116 54//116
f 52//117 66//117 62//117
f 42//118 54//118 52//118
f 24//119 44//119 42//119
f 14//120 26//120 24//120
f 12//121 16//121 14//121
f 15//122 13//122 12//122
f 25//123 17//123 15//123
f 43//124 27//124 25//124
f 53//125 45//125 43//125
f 64//126 55//126 53//126
f 73//127 67//127 64//127
f 79//128 75//128 73//128
f 85//129 81//129 79//129
f 91//130 87//130 85//130
f 94//131 93//131 91//131
f 90//132 95//132 94//132
f 84//133 92//133 90//133
f 78//134 86//134 84//134
f 72//135 80//135 78//135
f 62//136 74//136 72//136
f 75//137 89//137 77//137
f 67//138 77//138 68//138
f 77//139 67//139 75//139
f 55//140 68//140 49//140
f 27//141 21//141 11//141
f 17//142 11//142 9//142
f 68//143 55//143 67//143
f 45//144 49//144 21//144
f 11//145 17//145 27//145
f 13//146 9//146 1//146
f 49//147 45//147 55//147
f 9//148 13//148 17//148
f 16//149 1//149 8//149
f 26//150 8//150 10//150
f 21//151 27//151 45//151
f 8//152 26//152 16//152
f 92//153 100//153 95//153
f 95//154 99//154 93//154
f 93//155 97//155 87//155
f 81//156 97//156 89//156
f 1//157 16//157 13//157
f 44//158 10//158 20//158
f 74//159 88//159 80//159
f 80//160 96//160 86//160
f 99//161 95//161 100//161
f 97//162 81//162 87//162
f 10//163 44//163 26//163
f 54//164 20//164 48//164
f 66//165 76//165 74//165
f 96//166 80//166 88//166
f 97//167 93//167 99//167
f 20//168 54//168 44//168
f 88//169 74//169 76//169
f 86//170 98//170 92//170
f 89//171 75//171 81//171
f 66//172 48//172 65//172
f 98//173 86//173 96//173
f 48//174 66//174 54//174
f 100//175 92//175 98//175
f 76//176 66//176 65//176
f 69//177 100//177 98//177
f 69//178 98//178 96//178
f 69//179 96//179 88//179
f 69//180 88//180 76//180
f 69//181 76//181 65//181
f 69//182 65//182 48//182
f 69//183 48//183 20//183
f 69//184 20//184 10//184
f 69//185 10//185 8//185
f 69//186 8//186 1//186
f 69//187 1//187 9//187
f 69//188 9//188 11//188
f 69//189 11//189 21//189
f 69//190 21//190 49//190
f 69//191 49//191 68//191
f 69//192 68//192 77//192
f 69//193 77//193 89//193
f 69//194 89//194 97//194
f 69//195 97//195 99//195
f 69//196 99//196 100//196
