# Created by FreeCAD <https://www.freecad.org>
v -7.500000 70.000000 0.000000
v -7.132924 70.000000 -2.317627
v -7.132924 70.000000 2.317627
v -6.067627 70.000000 -4.408390
v -6.067627 70.000000 4.408390
v -5.000000 0.000000 0.000000
v -5.000000 70.000000 0.000000
v -4.755282 0.000000 -1.545085
v -4.755282 0.000000 1.545085
v -4.755282 70.000000 -1.545085
v -4.755282 70.000000 1.545085
v -4.408390 70.000000 -6.067627
v -4.408390 70.000000 6.067627
v -4.045085 0.000000 -2.938926
v -4.045085 0.000000 2.938926
v -4.045085 70.000000 -2.938926
v -4.045085 70.000000 2.938926
v -2.938926 0.000000 -4.045085
v -2.938926 0.000000 4.045085
v -2.938926 70.000000 -4.045085
v -2.938926 70.000000 4.045085
v -2.317627 70.000000 -7.132924
v -2.317627 70.000000 7.132924
v -1.545085 0.000000 -4.755282
v -1.545085 0.000000 4.755282
v -1.545085 70.000000 -4.755282
v -1.545085 70.000000 4.755282
v 0.000000 0.000000 -5.000000
v 0.000000 0.000000 0.000000
v 0.000000 0.000000 5.000000
v 0.000000 70.000000 -7.500000
v 0.000000 70.000000 -5.000000
v 0.000000 70.000000 5.000000
v 0.000000 70.000000 7.500000
v 0.000000 100.000000 0.000000
v 1.545085 0.000000 -4.755282
v 1.545085 0.000000 4.755282
v 1.545085 70.000000 -4.755282
v 1.545085 70.000000 4.755282
v 2.317627 70.000000 -7.132924
v 2.317627 70.000000 7.132924
v 2.938926 0.000000 -4.045085
v 2.938926 0.000000 4.045085
v 2.938926 70.000000 -4.045085
v 2.938926 70.000000 4.045085
v 4.045085 0.000000 -2.938926
v 4.045085 0.000000 2.938926
v 4.045085 70.000000 -2.938926
v 4.045085 70.000000 2.938926
v 4.408390 70.000000 -6.067627
v 4.408390 70.000000 6.067627
v 4.755282 0.000000 -1.545085
v 4.755282 0.000000 1.545085
v 4.755282 70.000000 -1.545085
v 4.755282 70.000000 1.545085
v 5.000000 0.000000 0.000000
v 5.000000 70.000000 0.000000
v 6.067627 70.000000 -4.408390
v 6.067627 70.000000 4.408390
v 7.132924 70.000000 -2.317627
v 7.132924 70.000000 2.317627
v 7.500000 70.000000 0.000000
vn 0.000000 -1.000000 -0.000000
vn 0.000000 -1.000000 0.000000
vn 0.000000 -1.000000 0.000000
vn 0.000000 -1.000000 0.000000
vn 0.000000 -1.000000 0.000000
vn 0.000000 -1.000000 0.000000
vn 0.000000 -1.000000 0.000000
vn 0.000000 -1.000000 0.000000
vn 0.000000 -1.000000 0.000000
vn -0.000000 -1.000000 0.000000
vn 0.000000 -1.000000 0.000000
vn 0.000000 -1.000000 0.000000
vn 0.000000 -1.000000 0.000000
vn 0.000000 -1.000000 -0.000000
vn 0.000000 -1.000000 0.000000
vn 0.000000 -1.000000 0.000000
vn 0.000000 -1.000000 0.000000
vn 0.000000 -1.000000 0.000000
vn 0.000000 -1.000000 0.000000
vn 0.000000 -1.000000 0.000000
vn 0.156435 0.000000 -0.987688
vn 0.453990 0.000000 -0.891007
vn 0.707107 0.000000 -0.707107
vn 0.891007 0.000000 -0.453990
vn 0.987688 0.000000 -0.156435
vn 0.987688 0.000000 0.156435
vn 0.891007 0.000000 0.453990
vn 0.707107 0.000000 0.707107
vn 0.453990 0.000000 0.891007
vn 0.156435 0.000000 0.987688
vn -0.156435 0.000000 0.987688
vn -0.453990 0.000000 0.891007
vn -0.707107 0.000000 0.707107
vn -0.891007 0.000000 0.453990
vn -0.987688 0.000000 0.156435
vn -0.987688 0.000000 -0.156435
vn -0.891007 0.000000 -0.453990
vn -0.707107 0.000000 -0.707107
vn -0.453990 0.000000 -0.891007
vn -0.156435 0.000000 -0.987688
vn -0.156435 0.000000 -0.987688
vn -0.453990 0.000000 -0.891007
vn -0.707107 0.000000 -0.707107
vn -0.891007 0.000000 -0.453990
vn -0.987688 0.000000 -0.156435
vn -0.987688 0.000000 0.156435
vn -0.891007 0.000000 0.453990
vn -0.707107 0.000000 0.707107
vn -0.453990 0.000000 0.891007
vn -0.156435 0.000000 0.987688
vn 0.156435 0.000000 0.987688
vn 0.453990 0.000000 0.891007
vn 0.707107 0.000000 0.707107
vn 0.891007 0.000000 0.453990
vn 0.987688 0.000000 0.156435
vn 0.987688 0.000000 -0.156435
vn 0.891007 0.000000 -0.453990
vn 0.707107 0.000000 -0.707107
vn 0.453990 0.000000 -0.891007
vn 0.156435 0.000000 -0.987688
vn 0.000000 -1.000000 0.000000
vn 0.000000 -1.000000 0.000000
vn 0.000000 -1.000000 0.000000
vn 0.000000 -1.000000 0.000000
vn 0.000000 -1.000000 0.000000
vn 0.000000 -1.000000 0.000000
vn 0.000000 -1.000000 -0.000000
vn 0.000000 -1.000000 0.000000
vn 0.000000 -1.000000 0.000000
vn 0.000000 -1.000000 0.000000
vn 0.000000 -1.000000 -0.000000
vn 0.000000 -1.000000 0.000000
vn -0.000000 -1.000000 0.000000
vn -0.000000 -1.000000 0.000000
vn 0.000000 -1.000000 0.000000
vn 0.000000 -1.000000 0.000000
vn 0.000000 -1.000000 0.000000
vn 0.000000 -1.000000 0.000000
vn 0.000000 -1.000000 0.000000
vn 0.000000 -1.000000 0.000000
vn 0.000000 -1.000000 0.000000
vn 0.000000 -1.000000 0.000000
vn 0.000000 -1.000000 0.000000
vn 0.000000 -1.000000 0.000000
vn 0.000000 -1.000000 -0.000000
vn 0.000000 -1.000000 0.000000
vn 0.000000 -1.000000 0.000000
vn 0.000000 -1.000000 0.000000
vn 0.000000 -1.000000 0.000000
vn -0.000000 -1.000000 0.000000
vn 0.000000 -1.000000 -0.000000
vn 0.000000 -1.000000 0.000000
vn -0.000000 -1.000000 0.000000
vn 0.000000 -1.000000 0.000000
vn 0.000000 -1.000000 0.000000
vn 0.000000 -1.000000 -0.000000
vn 0.000000 -1.000000 0.000000
vn 0.000000 -1.000000 0.000000
vn 0.000000 -1.000000 0.000000
vn -0.000000 -1.000000 0.000000
vn 0.958889 0.239722 -0.151873
vn 0.865026 0.239722 -0.440753
vn 0.686489 0.239722 -0.686489
vn 0.440753 0.239722 -0.865026
vn 0.151873 0.239722 -0.958889
vn -0.151873 0.239722 -0.958889
vn -0.440753 0.239722 -0.865026
vn -0.686489 0.239722 -0.686489
vn -0.865026 0.239722 -0.440753
vn -0.958889 0.239722 -0.151873
vn -0.958889 0.239722 0.151873
vn -0.865026 0.239722 0.440753
vn -0.686489 0.239722 0.686489
vn -0.440753 0.239722 0.865026
vn -0.151873 0.239722 0.958889
vn 0.151873 0.239722 0.958889
vn 0.440753 0.239722 0.865026
vn 0.686489 0.239722 0.686489
vn 0.865026 0.239722 0.440753
vn 0.958889 0.239722 0.151873
f 47//1 29//1 53//1
f 29//2 47//2 43//2
f 29//3 43//3 37//3
f 29//4 37//4 30//4
f 29//5 30//5 25//5
f 29//6 25//6 19//6
f 29//7 19//7 15//7
f 29//8 15//8 9//8
f 29//9 9//9 6//9
f 29//10 6//10 8//10
f 29//11 8//11 14//11
f 29//12 14//12 18//12
f 29//13 18//13 24//13
f 29//14 24//14 28//14
f 29//15 28//15 36//15
f 29//16 36//16 42//16
f 29//17 42//17 46//17
f 29//18 46//18 52//18
f 29//19 52//19 56//19
f 29//20 56//20 53//20
f 38//21 28//21 32//21
f 44//22 36//22 38//22
f 48//23 42//23 44//23
f 54//24 46//24 48//24
f 57//25 52//25 54//25
f 55//26 56//26 57//26
f 49//27 53//27 55//27
f 45//28 47//28 49//28
f 39//29 43//29 45//29
f 33//30 37//30 39//30
f 27//31 30//31 33//31
f 21//32 25//32 27//32
f 17//33 19//33 21//33
f 11//34 15//34 17//34
f 7//35 9//35 11//35
f 10//36 6//36 7//36
f 16//37 8//37 10//37
f 20//38 14//38 16//38
f 26//39 18//39 20//39
f 32//40 24//40 26//40
f 24//41 32//41 28//41
f 18//42 26//42 24//42
f 14//43 20//43 18//43
f 8//44 16//44 14//44
f 6//45 10//45 8//45
f 9//46 7//46 6//46
f 15//47 11//47 9//47
f 19//48 17//48 15//48
f 25//49 21//49 19//49
f 30//50 27//50 25//50
f 37//51 33//51 30//51
f 43//52 39//52 37//52
f 47//53 45//53 43//53
f 53//54 49//54 47//54
f 56//55 55//55 53//55
f 52//56 57//56 56//56
f 46//57 54//57 52//57
f 42//58 48//58 46//58
f 36//59 44//59 42//59
f 28//60 38//60 36//60
f 39//61 51//61 41//61
f 33//62 41//62 34//62
f 41//63 33//63 39//63
f 27//64 34//64 23//64
f 17//65 13//65 5//65
f 11//66 5//66 3//66
f 34//67 27//67 33//67
f 21//68 23//68 13//68
f 5//69 11//69 17//69
f 7//70 3//70 1//70
f 23//71 21//71 27//71
f 3//72 7//72 11//72
f 10//73 1//73 2//73
f 16//74 2//74 4//74
f 13//75 17//75 21//75
f 2//76 16//76 10//76
f 54//77 62//77 57//77
f 57//78 61//78 55//78
f 55//79 59//79 49//79
f 45//80 59//80 51//80
f 1//81 10//81 7//81
f 20//82 4//82 12//82
f 38//83 50//83 44//83
f 44//84 58//84 48//84
f 61//85 57//85 62//85
f 59//86 45//86 49//86
f 4//87 20//87 16//87
f 26//88 12//88 22//88
f 32//89 40//89 38//89
f 58//90 44//90 50//90
f 59//91 55//91 61//91
f 12//92 26//92 20//92
f 50//93 38//93 40//93
f 48//94 60//94 54//94
f 51//95 39//95 45//95
f 32//96 22//96 31//96
f 60//97 48//97 58//97
f 22//98 32//98 26//98
f 62//99 54//99 60//99
f 40//100 32//100 31//100
f 35//101 62//101 60//101
f 35//102 60//102 58//102
f 35//103 58//103 50//103
f 35//104 50//104 40//104
f 35//105 40//105 31//105
f 35//106 31//106 22//106
f 35//107 22//107 12//107
f 35//108 12//108 4//108
f 35//109 4//109 2//109
f 35//110 2//110 1//110
f 35//111 1//111 3//111
f 35//112 3//112 5//112
f 35//113 5//113 13//113
f 35//114 13//114 23//114
f 35//115 23//115 34//115
f 35//116 34//116 41//116
f 35//117 41//117 51//117
f 35//118 51//118 59//118
f 35//119 59//119 61//119
f 35//120 61//120 62//120
