# Created by FreeCAD <https://www.freecad.org>
v -7.500000 0.000000 -70.000000
v -7.132924 -2.317627 -70.000000
v -7.132924 2.317627 -70.000000
v -6.067627 -4.408390 -70.000000
v -6.067627 4.408390 -70.000000
v -5.000000 0.000000 -70.000000
v -5.000000 0.000000 0.000000
v -4.755282 -1.545085 -70.000000
v -4.755282 -1.545085 0.000000
v -4.755282 1.545085 -70.000000
v -4.755282 1.545085 0.000000
v -4.408390 -6.067627 -70.000000
v -4.408390 6.067627 -70.000000
v -4.045085 -2.938926 -70.000000
v -4.045085 -2.938926 0.000000
v -4.045085 2.938926 -70.000000
v -4.045085 2.938926 0.000000
v -2.938926 -4.045085 -70.000000
v -2.938926 -4.045085 0.000000
v -2.938926 4.045085 -70.000000
v -2.938926 4.045085 0.000000
v -2.500000 -7.977969 -118.790115
v -2.500000 -7.977969 -103.790115
v -2.500000 -5.007676 -118.790115
v -2.500000 -5.007676 -107.811424
v -2.500000 -5.007676 -103.790115
v -2.500000 7.022031 -118.790115
v -2.500000 7.022031 -114.768799
v -2.500000 7.022031 -103.790115
v -2.500000 9.992324 -118.790115
v -2.500000 9.992324 -103.790115
v -2.317627 -7.132924 -70.000000
v -2.317627 7.132924 -70.000000
v -1.545085 -4.755282 -70.000000
v -1.545085 -4.755282 0.000000
v -1.545085 4.755282 -70.000000
v -1.545085 4.755282 0.000000
v 0.000000 -7.500000 -70.000000
v 0.000000 -5.000000 -70.000000
v 0.000000 -5.000000 0.000000
v 0.000000 0.000000 -100.000000
v 0.000000 0.000000 0.000000
v 0.000000 5.000000 -70.000000
v 0.000000 5.000000 0.000000
v 0.000000 7.500000 -70.000000
v 1.545085 -4.755282 -70.000000
v 1.545085 -4.755282 0.000000
v 1.545085 4.755282 -70.000000
v 1.545085 4.755282 0.000000
v 2.317627 -7.132924 -70.000000
v 2.317627 7.132924 -70.000000
v 2.500000 -7.977969 -118.790115
v 2.500000 -7.977969 -103.790115
v 2.500000 -5.007676 -118.790115
v 2.500000 -5.007676 -107.811424
v 2.500000 -5.007676 -103.790115
v 2.500000 7.022031 -118.790115
v 2.500000 7.022031 -114.768799
v 2.500000 7.022031 -103.790115
v 2.500000 9.992324 -118.790115
v 2.500000 9.992324 -103.790115
v 2.938926 -4.045085 -70.000000
v 2.938926 -4.045085 0.000000
v 2.938926 4.045085 -70.000000
v 2.938926 4.045085 0.000000
v 4.045085 -2.938926 -70.000000
v 4.045085 -2.938926 0.000000
v 4.045085 2.938926 -70.000000
v 4.045085 2.938926 0.000000
v 4.408390 -6.067627 -70.000000
v 4.408390 6.067627 -70.000000
v 4.755282 -1.545085 -70.000000
v 4.755282 -1.545085 0.000000
v 4.755282 1.545085 -70.000000
v 4.755282 1.545085 0.000000
v 5.000000 0.000000 -70.000000
v 5.000000 0.000000 0.000000
v 6.067627 -4.408390 -70.000000
v 6.067627 4.408390 -70.000000
v 7.132924 -2.317627 -70.000000
v 7.132924 2.317627 -70.000000
v 7.500000 0.000000 -70.000000
vn 0.000000 -1.000000 0.000000
vn 0.000000 -1.000000 -0.000000
vn 0.000000 0.000000 -1.000000
vn 0.000000 0.000000 -1.000000
vn 0.000000 1.000000 0.000000
vn 0.000000 1.000000 -0.000000
vn 0.000000 -0.674103 -0.738637
vn 0.000000 -0.674103 -0.738637
vn 0.000000 0.000000 -1.000000
vn 0.000000 0.000000 -1.000000
vn 0.000000 1.000000 0.000000
vn 0.000000 1.000000 -0.000000
vn 0.000000 0.000000 1.000000
vn 0.000000 0.000000 1.000000
vn 1.000000 0.000000 0.000000
vn 1.000000 0.000000 0.000000
vn 1.000000 0.000000 -0.000000
vn 1.000000 0.000000 0.000000
vn 1.000000 0.000000 0.000000
vn 1.000000 0.000000 0.000000
vn 1.000000 0.000000 0.000000
vn 1.000000 -0.000000 0.000000
vn -1.000000 0.000000 0.000000
vn -1.000000 0.000000 0.000000
vn -1.000000 -0.000000 0.000000
vn -1.000000 0.000000 0.000000
vn -1.000000 0.000000 0.000000
vn -1.000000 -0.000000 -0.000000
vn -1.000000 0.000000 0.000000
vn -1.000000 -0.000000 0.000000
vn 0.000000 -1.000000 0.000000
vn 0.000000 -1.000000 -0.000000
vn 0.000000 0.674103 0.738637
vn 0.000000 0.674103 0.738637
vn 0.000000 0.000000 1.000000
vn 0.000000 0.000000 1.000000
vn 0.000000 0.000000 1.000000
vn 0.000000 0.000000 1.000000
vn 0.000000 0.000000 1.000000
vn 0.000000 0.000000 1.000000
vn 0.000000 -0.000000 1.000000
vn 0.000000 0.000000 1.000000
vn 0.000000 0.000000 1.000000
vn 0.000000 0.000000 1.000000
vn 0.000000 0.000000 1.000000
vn 0.000000 0.000000 1.000000
vn 0.000000 0.000000 1.000000
vn 0.000000 0.000000 1.000000
vn 0.000000 0.000000 1.000000
vn 0.000000 0.000000 1.000000
vn 0.000000 0.000000 1.000000
vn 0.000000 0.000000 1.000000
vn 0.000000 0.000000 1.000000
vn 0.000000 0.000000 1.000000
vn -0.000000 0.000000 1.000000
vn 0.000000 0.000000 1.000000
vn 0.987688 0.156435 0.000000
vn 0.891007 0.453990 0.000000
vn 0.707107 0.707107 0.000000
vn 0.453990 0.891007 0.000000
vn 0.156435 0.987688 0.000000
vn -0.156435 0.987688 0.000000
vn -0.453990 0.891007 0.000000
vn -0.707107 0.707107 0.000000
vn -0.891007 0.453990 0.000000
vn -0.987688 0.156435 0.000000
vn -0.987688 -0.156435 0.000000
vn -0.891007 -0.453990 0.000000
vn -0.707107 -0.707107 0.000000
vn -0.453990 -0.891007 0.000000
vn -0.156435 -0.987688 0.000000
vn 0.156435 -0.987688 0.000000
vn 0.453990 -0.891007 0.000000
vn 0.707107 -0.707107 0.000000
vn 0.891007 -0.453990 0.000000
vn 0.987688 -0.156435 0.000000
vn 0.987688 -0.156435 0.000000
vn 0.891007 -0.453990 0.000000
vn 0.707107 -0.707107 0.000000
vn 0.453990 -0.891007 0.000000
vn 0.156435 -0.987688 0.000000
vn -0.156435 -0.987688 0.000000
vn -0.453990 -0.891007 0.000000
vn -0.707107 -0.707107 0.000000
vn -0.891007 -0.453990 0.000000
vn -0.987688 -0.156435 0.000000
vn -0.987688 0.156435 0.000000
vn -0.891007 0.453990 0.000000
vn -0.707107 0.707107 0.000000
vn -0.453990 0.891007 0.000000
vn -0.156435 0.987688 0.000000
vn 0.156435 0.987688 0.000000
vn 0.453990 0.891007 0.000000
vn 0.707107 0.707107 0.000000
vn 0.891007 0.453990 0.000000
vn 0.987688 0.156435 0.000000
vn 0.000000 0.000000 1.000000
vn 0.000000 0.000000 1.000000
vn 0.000000 0.000000 1.000000
vn 0.000000 0.000000 1.000000
vn 0.000000 0.000000 1.000000
vn 0.000000 0.000000 1.000000
vn 0.000000 -0.000000 1.000000
vn 0.000000 0.000000 1.000000
vn -0.000000 0.000000 1.000000
vn 0.000000 0.000000 1.000000
vn 0.000000 0.000000 1.000000
vn 0.000000 0.000000 1.000000
vn 0.000000 -0.000000 1.000000
vn 0.000000 0.000000 1.000000
vn -0.000000 0.000000 1.000000
vn 0.000000 0.000000 1.000000
vn 0.000000 0.000000 1.000000
vn 0.000000 0.000000 1.000000
vn 0.000000 0.000000 1.000000
vn 0.000000 0.000000 1.000000
vn 0.000000 0.000000 1.000000
vn 0.000000 -0.000000 1.000000
vn 0.000000 0.000000 1.000000
vn 0.000000 -0.000000 1.000000
vn 0.000000 0.000000 1.000000
vn 0.000000 0.000000 1.000000
vn 0.000000 0.000000 1.000000
vn 0.000000 0.000000 1.000000
vn 0.000000 0.000000 1.000000
vn 0.000000 0.000000 1.000000
vn 0.000000 0.000000 1.000000
vn 0.000000 0.000000 1.000000
vn 0.000000 0.000000 1.000000
vn 0.000000 0.000000 1.000000
vn -0.000000 0.000000 1.000000
vn 0.000000 0.000000 1.000000
vn 0.000000 0.000000 1.000000
vn -0.000000 0.000000 1.000000
vn 0.000000 0.000000 1.000000
vn 0.000000 0.000000 1.000000
vn 0.958889 -0.151873 -0.239722
vn 0.865026 -0.440753 -0.239722
vn 0.686489 -0.686489 -0.239722
vn 0.440753 -0.865026 -0.239722
vn 0.151873 -0.958889 -0.239722
vn -0.151873 -0.958889 -0.239722
vn -0.440753 -0.865026 -0.239722
vn -0.686489 -0.686489 -0.239722
vn -0.865026 -0.440753 -0.239722
vn -0.958889 -0.151873 -0.239722
vn -0.958889 0.151873 -0.239722
vn -0.865026 0.440753 -0.239722
vn -0.686489 0.686489 -0.239722
vn -0.440753 0.865026 -0.239722
vn -0.151873 0.958889 -0.239722
vn 0.151873 0.958889 -0.239722
vn 0.440753 0.865026 -0.239722
vn 0.686489 0.686489 -0.239722
vn 0.865026 0.440753 -0.239722
vn 0.958889 0.151873 -0.239722
f 22//1 53//1 23//1
f 53//2 22//2 52//2
f 24//3 52//3 22//3
f 52//4 24//4 54//4
f 25//5 54//5 24//5
f 54//6 25//6 55//6
f 27//7 55//7 25//7
f 55//8 27//8 57//8
f 30//9 57//9 27//9
f 57//10 30//10 60//10
f 31//11 60//11 30//11
f 60//12 31//12 61//12
f 29//13 61//13 31//13
f 61//14 29//14 59//14
f 58//15 55//15 57//15
f 58//16 57//16 60//16
f 55//17 56//17 53//17
f 58//18 61//18 59//18
f 61//19 58//19 60//19
f 55//20 52//20 54//20
f 52//21 55//21 53//21
f 55//22 58//22 56//22
f 28//23 25//23 26//23
f 25//24 28//24 27//24
f 25//25 22//25 23//25
f 27//26 28//26 30//26
f 28//27 31//27 30//27
f 26//28 25//28 23//28
f 22//29 25//29 24//29
f 31//30 28//30 29//30
f 28//31 59//31 29//31
f 59//32 28//32 58//32
f 26//33 58//33 28//33
f 58//34 26//34 56//34
f 23//35 56//35 26//35
f 56//36 23//36 53//36
f 69//37 42//37 75//37
f 42//38 69//38 65//38
f 42//39 65//39 49//39
f 42//40 49//40 44//40
f 42//41 44//41 37//41
f 42//42 37//42 21//42
f 42//43 21//43 17//43
f 42//44 17//44 11//44
f 42//45 11//45 7//45
f 42//46 7//46 9//46
f 42//47 9//47 15//47
f 42//48 15//48 19//48
f 42//49 19//49 35//49
f 42//50 35//50 40//50
f 42//51 40//51 47//51
f 42//52 47//52 63//52
f 42//53 63//53 67//53
f 42//54 67//54 73//54
f 42//55 73//55 77//55
f 42//56 77//56 75//56
f 74//57 77//57 76//57
f 68//58 75//58 74//58
f 64//59 69//59 68//59
f 48//60 65//60 64//60
f 43//61 49//61 48//61
f 36//62 44//62 43//62
f 20//63 37//63 36//63
f 16//64 21//64 20//64
f 10//65 17//65 16//65
f 6//66 11//66 10//66
f 8//67 7//67 6//67
f 14//68 9//68 8//68
f 18//69 15//69 14//69
f 34//70 19//70 18//70
f 39//71 35//71 34//71
f 46//72 40//72 39//72
f 62//73 47//73 46//73
f 66//74 63//74 62//74
f 72//75 67//75 66//75
f 76//76 73//76 72//76
f 73//77 76//77 77//77
f 67//78 72//78 73//78
f 63//79 66//79 67//79
f 47//80 62//80 63//80
f 40//81 46//81 47//81
f 35//82 39//82 40//82
f 19//83 34//83 35//83
f 15//84 18//84 19//84
f 9//85 14//85 15//85
f 7//86 8//86 9//86
f 11//87 6//87 7//87
f 17//88 10//88 11//88
f 21//89 16//89 17//89
f 37//90 20//90 21//90
f 44//91 36//91 37//91
f 49//92 43//92 44//92
f 65//93 48//93 49//93
f 69//94 64//94 65//94
f 75//95 68//95 69//95
f 77//96 74//96 75//96
f 10//97 5//97 3//97
f 6//98 3//98 1//98
f 3//99 6//99 10//99
f 8//100 1//100 2//100
f 18//101 4//101 12//101
f 34//102 12//102 32//102
f 74//103 79//103 68//103
f 64//104 79//104 71//104
f 1//105 8//105 6//105
f 14//106 2//106 4//106
f 12//107 34//107 18//107
f 39//108 32//108 38//108
f 76//109 81//109 74//109
f 79//110 64//110 68//110
f 2//111 14//111 8//111
f 32//112 39//112 34//112
f 46//113 38//113 50//113
f 62//114 50//114 70//114
f 79//115 74//115 81//115
f 48//116 71//116 51//116
f 48//117 45//117 43//117
f 36//118 45//118 33//118
f 4//119 18//119 14//119
f 50//120 62//120 46//120
f 71//121 48//121 64//121
f 45//122 36//122 43//122
f 36//123 13//123 20//123
f 16//124 13//124 5//124
f 38//125 46//125 39//125
f 66//126 70//126 78//126
f 45//127 48//127 51//127
f 13//128 16//128 20//128
f 70//129 66//129 62//129
f 72//130 78//130 80//130
f 13//131 36//131 33//131
f 78//132 72//132 66//132
f 5//133 10//133 16//133
f 76//134 80//134 82//134
f 80//135 76//135 72//135
f 81//136 76//136 82//136
f 41//137 82//137 80//137
f 41//138 80//138 78//138
f 41//139 78//139 70//139
f 41//140 70//140 50//140
f 41//141 50//141 38//141
f 41//142 38//142 32//142
f 41//143 32//143 12//143
f 41//144 12//144 4//144
f 41//145 4//145 2//145
f 41//146 2//146 1//146
f 41//147 1//147 3//147
f 41//148 3//148 5//148
f 41//149 5//149 13//149
f 41//150 13//150 33//150
f 41//151 33//151 45//151
f 41//152 45//152 51//152
f 41//153 51//153 71//153
f 41//154 71//154 79//154
f 41//155 79//155 81//155
f 41//156 81//156 82//156
