# Created by FreeCAD <https://www.freecad.org>
v -7.500000 0.000000 -70.000000
v -7.132924 -2.317627 -70.000000
v -7.132924 2.317627 -70.000000
v -6.067627 -4.408390 -70.000000
v -6.067627 4.408390 -70.000000
v -5.000000 0.000000 -70.000000
v -5.000000 0.000000 0.000000
v -4.755282 -1.545085 -70.000000
v -4.755282 -1.545085 0.000000
v -4.755282 1.545085 -70.000000
v -4.755282 1.545085 0.000000
v -4.408390 -6.067627 -70.000000
v -4.408390 6.067627 -70.000000
v -4.045085 -2.938926 -70.000000
v -4.045085 -2.938926 0.000000
v -4.045085 2.938926 -70.000000
v -4.045085 2.938926 0.000000
v -2.938926 -4.045085 -70.000000
v -2.938926 -4.045085 0.000000
v -2.938926 4.045085 -70.000000
v -2.938926 4.045085 0.000000
v -2.317627 -7.132924 -70.000000
v -2.317627 7.132924 -70.000000
v -1.545085 -4.755282 -70.000000
v -1.545085 -4.755282 0.000000
v -1.545085 4.755282 -70.000000
v -1.545085 4.755282 0.000000
v 0.000000 -7.500000 -70.000000
v 0.000000 -5.000000 -70.000000
v 0.000000 -5.000000 0.000000
v 0.000000 0.000000 -100.000000
v 0.000000 0.000000 0.000000
v 0.000000 5.000000 -70.000000
v 0.000000 5.000000 0.000000
v 0.000000 7.500000 -70.000000
v 1.545085 -4.755282 -70.000000
v 1.545085 -4.755282 0.000000
v 1.545085 4.755282 -70.000000
v 1.545085 4.755282 0.000000
v 2.317627 -7.132924 -70.000000
v 2.317627 7.132924 -70.000000
v 2.938926 -4.045085 -70.000000
v 2.938926 -4.045085 0.000000
v 2.938926 4.045085 -70.000000
v 2.938926 4.045085 0.000000
v 4.045085 -2.938926 -70.000000
v 4.045085 -2.938926 0.000000
v 4.045085 2.938926 -70.000000
v 4.045085 2.938926 0.000000
v 4.408390 -6.067627 -70.000000
v 4.408390 6.067627 -70.000000
v 4.755282 -1.545085 -70.000000
v 4.755282 -1.545085 0.000000
v 4.755282 1.545085 -70.000000
v 4.755282 1.545085 0.000000
v 5.000000 0.000000 -70.000000
v 5.000000 0.000000 0.000000
v 6.067627 -4.408390 -70.000000
v 6.067627 4.408390 -70.000000
v 7.132924 -2.317627 -70.000000
v 7.132924 2.317627 -70.000000
v 7.500000 0.000000 -70.000000
vn 0.000000 0.000000 1.000000
vn 0.000000 0.000000 1.000000
vn 0.000000 0.000000 1.000000
vn 0.000000 0.000000 1.000000
vn 0.000000 -0.000000 1.000000
vn 0.000000 0.000000 1.000000
vn 0.000000 0.000000 1.000000
vn 0.000000 0.000000 1.000000
vn 0.000000 0.000000 1.000000
vn 0.000000 0.000000 1.000000
vn 0.000000 0.000000 1.000000
vn 0.000000 0.000000 1.000000
vn 0.000000 0.000000 1.000000
vn 0.000000 0.000000 1.000000
vn 0.000000 0.000000 1.000000
vn 0.000000 0.000000 1.000000
vn 0.000000 0.000000 1.000000
vn 0.000000 0.000000 1.000000
vn -0.000000 0.000000 1.000000
vn 0.000000 0.000000 1.000000
vn 0.987688 0.156435 0.000000
vn 0.891007 0.453990 0.000000
vn 0.707107 0.707107 0.000000
vn 0.453990 0.891007 0.000000
vn 0.156435 0.987688 0.000000
vn -0.156435 0.987688 0.000000
vn -0.453990 0.891007 0.000000
vn -0.707107 0.707107 0.000000
vn -0.891007 0.453990 0.000000
vn -0.987688 0.156435 0.000000
vn -0.987688 -0.156435 0.000000
vn -0.891007 -0.453990 0.000000
vn -0.707107 -0.707107 0.000000
vn -0.453990 -0.891007 0.000000
vn -0.156435 -0.987688 0.000000
vn 0.156435 -0.987688 0.000000
vn 0.453990 -0.891007 0.000000
vn 0.707107 -0.707107 0.000000
vn 0.891007 -0.453990 0.000000
vn 0.987688 -0.156435 0.000000
vn 0.987688 -0.156435 0.000000
vn 0.891007 -0.453990 0.000000
vn 0.707107 -0.707107 0.000000
vn 0.453990 -0.891007 0.000000
vn 0.156435 -0.987688 0.000000
vn -0.156435 -0.987688 0.000000
vn -0.453990 -0.891007 0.000000
vn -0.707107 -0.707107 0.000000
vn -0.891007 -0.453990 0.000000
vn -0.987688 -0.156435 0.000000
vn -0.987688 0.156435 0.000000
vn -0.891007 0.453990 0.000000
vn -0.707107 0.707107 0.000000
vn -0.453990 0.891007 0.000000
vn -0.156435 0.987688 0.000000
vn 0.156435 0.987688 0.000000
vn 0.453990 0.891007 0.000000
vn 0.707107 0.707107 0.000000
vn 0.891007 0.453990 0.000000
vn 0.987688 0.156435 0.000000
vn 0.000000 0.000000 1.000000
vn 0.000000 0.000000 1.000000
vn 0.000000 0.000000 1.000000
vn 0.000000 0.000000 1.000000
vn 0.000000 0.000000 1.000000
vn 0.000000 0.000000 1.000000
vn 0.000000 -0.000000 1.000000
vn 0.000000 0.000000 1.000000
vn -0.000000 0.000000 1.000000
vn 0.000000 0.000000 1.000000
vn 0.000000 0.000000 1.000000
vn 0.000000 0.000000 1.000000
vn 0.000000 -0.000000 1.000000
vn 0.000000 0.000000 1.000000
vn -0.000000 0.000000 1.000000
vn 0.000000 0.000000 1.000000
vn 0.000000 0.000000 1.000000
vn 0.000000 0.000000 1.000000
vn 0.000000 0.000000 1.000000
vn 0.000000 0.000000 1.000000
vn 0.000000 0.000000 1.000000
vn 0.000000 -0.000000 1.000000
vn 0.000000 0.000000 1.000000
vn 0.000000 -0.000000 1.000000
vn 0.000000 0.000000 1.000000
vn 0.000000 0.000000 1.000000
vn 0.000000 0.000000 1.000000
vn 0.000000 0.000000 1.000000
vn 0.000000 0.000000 1.000000
vn 0.000000 0.000000 1.000000
vn 0.000000 0.000000 1.000000
vn 0.000000 0.000000 1.000000
vn 0.000000 0.000000 1.000000
vn 0.000000 0.000000 1.000000
vn -0.000000 0.000000 1.000000
vn 0.000000 0.000000 1.000000
vn 0.000000 0.000000 1.000000
vn -0.000000 0.000000 1.000000
vn 0.000000 0.000000 1.000000
vn 0.000000 0.000000 1.000000
vn 0.958889 -0.151873 -0.239722
vn 0.865026 -0.440753 -0.239722
vn 0.686489 -0.686489 -0.239722
vn 0.440753 -0.865026 -0.239722
vn 0.151873 -0.958889 -0.239722
vn -0.151873 -0.958889 -0.239722
vn -0.440753 -0.865026 -0.239722
vn -0.686489 -0.686489 -0.239722
vn -0.865026 -0.440753 -0.239722
vn -0.958889 -0.151873 -0.239722
vn -0.958889 0.151873 -0.239722
vn -0.865026 0.440753 -0.239722
vn -0.686489 0.686489 -0.239722
vn -0.440753 0.865026 -0.239722
vn -0.151873 0.958889 -0.239722
vn 0.151873 0.958889 -0.239722
vn 0.440753 0.865026 -0.239722
vn 0.686489 0.686489 -0.239722
vn 0.865026 0.440753 -0.239722
vn 0.958889 0.151873 -0.239722
f 49//1 32//1 55//1
f 32//2 49//2 45//2
f 32//3 45//3 39//3
f 32//4 39//4 34//4
f 32//5 34//5 27//5
f 32//6 27//6 21//6
f 32//7 21//7 17//7
f 32//8 17//8 11//8
f 32//9 11//9 7//9
f 32//10 7//10 9//10
f 32//11 9//11 15//11
f 32//12 15//12 19//12
f 32//13 19//13 25//13
f 32//14 25//14 30//14
f 32//15 30//15 37//15
f 32//16 37//16 43//16
f 32//17 43//17 47//17
f 32//18 47//18 53//18
f 32//19 53//19 57//19
f 32//20 57//20 55//20
f 54//21 57//21 56//21
f 48//22 55//22 54//22
f 44//23 49//23 48//23
f 38//24 45//24 44//24
f 33//25 39//25 38//25
f 26//26 34//26 33//26
f 20//27 27//27 26//27
f 16//28 21//28 20//28
f 10//29 17//29 16//29
f 6//30 11//30 10//30
f 8//31 7//31 6//31
f 14//32 9//32 8//32
f 18//33 15//33 14//33
f 24//34 19//34 18//34
f 29//35 25//35 24//35
f 36//36 30//36 29//36
f 42//37 37//37 36//37
f 46//38 43//38 42//38
f 52//39 47//39 46//39
f 56//40 53//40 52//40
f 53//41 56//41 57//41
f 47//42 52//42 53//42
f 43//43 46//43 47//43
f 37//44 42//44 43//44
f 30//45 36//45 37//45
f 25//46 29//46 30//46
f 19//47 24//47 25//47
f 15//48 18//48 19//48
f 9//49 14//49 15//49
f 7//50 8//50 9//50
f 11//51 6//51 7//51
f 17//52 10//52 11//52
f 21//53 16//53 17//53
f 27//54 20//54 21//54
f 34//55 26//55 27//55
f 39//56 33//56 34//56
f 45//57 38//57 39//57
f 49//58 44//58 45//58
f 55//59 48//59 49//59
f 57//60 54//60 55//60
f 10//61 5//61 3//61
f 6//62 3//62 1//62
f 3//63 6//63 10//63
f 8//64 1//64 2//64
f 18//65 4//65 12//65
f 24//66 12//66 22//66
f 54//67 59//67 48//67
f 44//68 59//68 51//68
f 1//69 8//69 6//69
f 14//70 2//70 4//70
f 12//71 24//71 18//71
f 29//72 22//72 28//72
f 56//73 61//73 54//73
f 59//74 44//74 48//74
f 2//75 14//75 8//75
f 22//76 29//76 24//76
f 36//77 28//77 40//77
f 42//78 40//78 50//78
f 59//79 54//79 61//79
f 38//80 51//80 41//80
f 38//81 35//81 33//81
f 26//82 35//82 23//82
f 4//83 18//83 14//83
f 40//84 42//84 36//84
f 51//85 38//85 44//85
f 35//86 26//86 33//86
f 26//87 13//87 20//87
f 16//88 13//88 5//88
f 28//89 36//89 29//89
f 46//90 50//90 58//90
f 35//91 38//91 41//91
f 13//92 16//92 20//92
f 50//93 46//93 42//93
f 52//94 58//94 60//94
f 13//95 26//95 23//95
f 58//96 52//96 46//96
f 5//97 10//97 16//97
f 56//98 60//98 62//98
f 60//99 56//99 52//99
f 61//100 56//100 62//100
f 31//101 62//101 60//101
f 31//102 60//102 58//102
f 31//103 58//103 50//103
f 31//104 50//104 40//104
f 31//105 40//105 28//105
f 31//106 28//106 22//106
f 31//107 22//107 12//107
f 31//108 12//108 4//108
f 31//109 4//109 2//109
f 31//110 2//110 1//110
f 31//111 1//111 3//111
f 31//112 3//112 5//112
f 31//113 5//113 13//113
f 31//114 13//114 23//114
f 31//115 23//115 35//115
f 31//116 35//116 41//116
f 31//117 41//117 51//117
f 31//118 51//118 59//118
f 31//119 59//119 61//119
f 31//120 61//120 62//120
