# Created by FreeCAD <https://www.freecad.org>
v -2.500000 -2.500000 0.000000
v -2.500000 2.500000 0.000000
v -2.377641 -2.500000 -0.772542
v -2.377641 -2.500000 0.772542
v -2.377641 2.500000 -0.772542
v -2.377641 2.500000 0.772542
v -2.022542 -2.500000 -1.469463
v -2.022542 -2.500000 1.469463
v -2.022542 2.500000 -1.469463
v -2.022542 2.500000 1.469463
v -1.469463 -2.500000 -2.022542
v -1.469463 -2.500000 2.022542
v -1.469463 2.500000 -2.022542
v -1.469463 2.500000 2.022542
v -0.772542 -2.500000 -2.377641
v -0.772542 -2.500000 2.377641
v -0.772542 2.500000 -2.377641
v -0.772542 2.500000 2.377641
v 0.000000 -2.500000 -2.500000
v 0.000000 -2.500000 0.000000
v 0.000000 -2.500000 2.500000
v 0.000000 2.500000 -2.500000
v 0.000000 2.500000 0.000000
v 0.000000 2.500000 2.500000
v 0.772542 -2.500000 -2.377641
v 0.772542 -2.500000 2.377641
v 0.772542 2.500000 -2.377641
v 0.772542 2.500000 2.377641
v 1.469463 -2.500000 -2.022542
v 1.469463 -2.500000 2.022542
v 1.469463 2.500000 -2.022542
v 1.469463 2.500000 2.022542
v 2.022542 -2.500000 -1.469463
v 2.022542 -2.500000 1.469463
v 2.022542 2.500000 -1.469463
v 2.022542 2.500000 1.469463
v 2.377641 -2.500000 -0.772542
v 2.377641 -2.500000 0.772542
v 2.377641 2.500000 -0.772542
v 2.377641 2.500000 0.772542
v 2.500000 -2.500000 0.000000
v 2.500000 2.500000 0.000000
vn 0.000000 -1.000000 -0.000000
vn 0.000000 -1.000000 0.000000
vn 0.000000 -1.000000 0.000000
vn 0.000000 -1.000000 0.000000
vn 0.000000 -1.000000 0.000000
vn 0.000000 -1.000000 0.000000
vn 0.000000 -1.000000 0.000000
vn 0.000000 -1.000000 0.000000
vn 0.000000 -1.000000 0.000000
vn -0.000000 -1.000000 0.000000
vn 0.000000 -1.000000 0.000000
vn 0.000000 -1.000000 0.000000
vn 0.000000 -1.000000 0.000000
vn 0.000000 -1.000000 -0.000000
vn 0.000000 -1.000000 0.000000
vn 0.000000 -1.000000 0.000000
vn 0.000000 -1.000000 0.000000
vn 0.000000 -1.000000 0.000000
vn 0.000000 -1.000000 0.000000
vn 0.000000 -1.000000 0.000000
vn 0.156435 0.000000 0.987688
vn 0.453990 0.000000 0.891007
vn 0.707107 0.000000 0.707107
vn 0.891007 0.000000 0.453990
vn 0.987688 0.000000 0.156435
vn 0.987688 0.000000 -0.156435
vn 0.891007 0.000000 -0.453990
vn 0.707107 0.000000 -0.707107
vn 0.453990 0.000000 -0.891007
vn 0.156435 0.000000 -0.987688
vn -0.156435 0.000000 -0.987688
vn -0.453990 0.000000 -0.891007
vn -0.707107 0.000000 -0.707107
vn -0.891007 0.000000 -0.453990
vn -0.987688 0.000000 -0.156435
vn -0.987688 0.000000 0.156435
vn -0.891007 0.000000 0.453990
vn -0.707107 0.000000 0.707107
vn -0.453990 0.000000 0.891007
vn -0.156435 0.000000 0.987688
vn -0.156435 0.000000 0.987688
vn -0.453990 0.000000 0.891007
vn -0.707107 0.000000 0.707107
vn -0.891007 0.000000 0.453990
vn -0.987688 0.000000 0.156435
vn -0.987688 0.000000 -0.156435
vn -0.891007 0.000000 -0.453990
vn -0.707107 0.000000 -0.707107
vn -0.453990 0.000000 -0.891007
vn -0.156435 0.000000 -0.987688
vn 0.156435 0.000000 -0.987688
vn 0.453990 0.000000 -0.891007
vn 0.707107 0.000000 -0.707107
vn 0.891007 0.000000 -0.453990
vn 0.987688 0.000000 -0.156435
vn 0.987688 0.000000 0.156435
vn 0.891007 0.000000 0.453990
vn 0.707107 0.000000 0.707107
vn 0.453990 0.000000 0.891007
vn 0.156435 0.000000 0.987688
vn 0.000000 1.000000 -0.000000
vn 0.000000 1.000000 0.000000
vn 0.000000 1.000000 0.000000
vn 0.000000 1.000000 0.000000
vn 0.000000 1.000000 0.000000
vn 0.000000 1.000000 0.000000
vn 0.000000 1.000000 0.000000
vn 0.000000 1.000000 0.000000
vn 0.000000 1.000000 0.000000
vn 0.000000 1.000000 0.000000
vn 0.000000 1.000000 0.000000
vn 0.000000 1.000000 0.000000
vn 0.000000 1.000000 0.000000
vn 0.000000 1.000000 -0.000000
vn 0.000000 1.000000 0.000000
vn 0.000000 1.000000 0.000000
vn 0.000000 1.000000 0.000000
vn 0.000000 1.000000 0.000000
vn 0.000000 1.000000 0.000000
vn -0.000000 1.000000 0.000000
f 34//1 20//1 38//1
f 20//2 34//2 30//2
f 20//3 30//3 26//3
f 20//4 26//4 21//4
f 20//5 21//5 16//5
f 20//6 16//6 12//6
f 20//7 12//7 8//7
f 20//8 8//8 4//8
f 20//9 4//9 1//9
f 20//10 1//10 3//10
f 20//11 3//11 7//11
f 20//12 7//12 11//12
f 20//13 11//13 15//13
f 20//14 15//14 19//14
f 20//15 19//15 25//15
f 20//16 25//16 29//16
f 20//17 29//17 33//17
f 20//18 33//18 37//18
f 20//19 37//19 41//19
f 20//20 41//20 38//20
f 26//21 24//21 21//21
f 30//22 28//22 26//22
f 34//23 32//23 30//23
f 38//24 36//24 34//24
f 41//25 40//25 38//25
f 37//26 42//26 41//26
f 33//27 39//27 37//27
f 29//28 35//28 33//28
f 25//29 31//29 29//29
f 19//30 27//30 25//30
f 15//31 22//31 19//31
f 11//32 17//32 15//32
f 7//33 13//33 11//33
f 3//34 9//34 7//34
f 1//35 5//35 3//35
f 4//36 2//36 1//36
f 8//37 6//37 4//37
f 12//38 10//38 8//38
f 16//39 14//39 12//39
f 21//40 18//40 16//40
f 18//41 21//41 24//41
f 14//42 16//42 18//42
f 10//43 12//43 14//43
f 6//44 8//44 10//44
f 2//45 4//45 6//45
f 5//46 1//46 2//46
f 9//47 3//47 5//47
f 13//48 7//48 9//48
f 17//49 11//49 13//49
f 22//50 15//50 17//50
f 27//51 19//51 22//51
f 31//52 25//52 27//52
f 35//53 29//53 31//53
f 39//54 33//54 35//54
f 42//55 37//55 39//55
f 40//56 41//56 42//56
f 36//57 38//57 40//57
f 32//58 34//58 36//58
f 28//59 30//59 32//59
f 24//60 26//60 28//60
f 35//61 23//61 39//61
f 23//62 35//62 31//62
f 23//63 31//63 27//63
f 23//64 27//64 22//64
f 23//65 22//65 17//65
f 23//66 17//66 13//66
f 23//67 13//67 9//67
f 23//68 9//68 5//68
f 23//69 5//69 2//69
f 23//70 2//70 6//70
f 23//71 6//71 10//71
f 23//72 10//72 14//72
f 23//73 14//73 18//73
f 23//74 18//74 24//74
f 23//75 24//75 28//75
f 23//76 28//76 32//76
f 23//77 32//77 36//77
f 23//78 36//78 40//78
f 23//79 40//79 42//79
f 23//80 42//80 39//80
