# Created by FreeCAD <https://www.freecad.org>
v -5.000000 -5.000000 -5.000000
v -5.000000 -5.000000 5.000000
v -5.000000 -4.000000 -3.750000
v -5.000000 -4.000000 3.750000
v -5.000000 -2.680058 -5.000000
v -5.000000 -2.680058 -3.750000
v -5.000000 -2.680058 3.750000
v -5.000000 -2.680058 5.000000
v -5.000000 2.680058 -5.000000
v -5.000000 2.680058 -3.750000
v -5.000000 2.680058 3.750000
v -5.000000 2.680058 5.000000
v -5.000000 4.000000 -3.750000
v -5.000000 4.000000 3.750000
v -5.000000 5.000000 -5.000000
v -5.000000 5.000000 5.000000
v 5.000000 -5.000000 -5.000000
v 5.000000 -5.000000 5.000000
v 5.000000 -4.000000 -3.750000
v 5.000000 -4.000000 3.750000
v 5.000000 -2.680058 -5.000000
v 5.000000 -2.680058 -3.750000
v 5.000000 -2.680058 3.750000
v 5.000000 -2.680058 5.000000
v 5.000000 2.680058 -5.000000
v 5.000000 2.680058 -3.750000
v 5.000000 2.680058 3.750000
v 5.000000 2.680058 5.000000
v 5.000000 4.000000 -3.750000
v 5.000000 4.000000 3.750000
v 5.000000 5.000000 -5.000000
v 5.000000 5.000000 5.000000
vn 0.000000 0.000000 1.000000
vn 0.000000 0.000000 1.000000
vn 0.000000 -1.000000 0.000000
vn 0.000000 -1.000000 0.000000
vn 0.000000 0.000000 -1.000000
vn -0.000000 0.000000 -1.000000
vn 0.000000 1.000000 0.000000
vn 0.000000 1.000000 -0.000000
vn 0.000000 1.000000 0.000000
vn 0.000000 1.000000 0.000000
vn -1.000000 0.000000 -0.000000
vn -1.000000 -0.000000 0.000000
vn -1.000000 0.000000 0.000000
vn -1.000000 0.000000 0.000000
vn -1.000000 -0.000000 0.000000
vn -1.000000 0.000000 0.000000
vn 1.000000 0.000000 -0.000000
vn 1.000000 0.000000 0.000000
vn 1.000000 0.000000 0.000000
vn 1.000000 -0.000000 0.000000
vn 1.000000 0.000000 0.000000
vn 1.000000 0.000000 0.000000
vn 0.000000 0.000000 -1.000000
vn 0.000000 0.000000 -1.000000
vn 0.000000 1.000000 0.000000
vn 0.000000 1.000000 -0.000000
vn 0.000000 0.000000 1.000000
vn 0.000000 0.000000 1.000000
vn 0.000000 1.000000 0.000000
vn 0.000000 1.000000 0.000000
vn -0.000000 0.000000 1.000000
vn 0.000000 0.000000 1.000000
vn 0.000000 0.000000 -1.000000
vn 0.000000 0.000000 -1.000000
vn 0.000000 -1.000000 -0.000000
vn 0.000000 -1.000000 0.000000
vn 0.000000 -1.000000 0.000000
vn 0.000000 -1.000000 0.000000
vn 1.000000 0.000000 0.000000
vn 1.000000 -0.000000 0.000000
vn 1.000000 0.000000 0.000000
vn 1.000000 0.000000 0.000000
vn 1.000000 -0.000000 0.000000
vn 1.000000 0.000000 0.000000
vn -1.000000 0.000000 0.000000
vn -1.000000 -0.000000 0.000000
vn -1.000000 0.000000 0.000000
vn -1.000000 0.000000 0.000000
vn -1.000000 0.000000 0.000000
vn -1.000000 0.000000 0.000000
vn 0.000000 0.000000 -1.000000
vn 0.000000 0.000000 -1.000000
vn 0.000000 -1.000000 0.000000
vn 0.000000 -1.000000 -0.000000
vn 0.000000 0.000000 1.000000
vn 0.000000 0.000000 1.000000
f 2//1 24//1 8//1
f 24//2 2//2 18//2
f 17//3 2//3 1//3
f 2//4 17//4 18//4
f 1//5 21//5 17//5
f 21//6 1//6 5//6
f 6//7 21//7 5//7
f 21//8 6//8 22//8
f 24//9 7//9 8//9
f 7//10 24//10 23//10
f 3//11 5//11 1//11
f 4//12 1//12 2//12
f 1//13 4//13 3//13
f 4//14 8//14 7//14
f 8//15 4//15 2//15
f 5//16 3//16 6//16
f 20//17 24//17 18//17
f 20//18 17//18 19//18
f 17//19 20//19 18//19
f 19//20 21//20 22//20
f 21//21 19//21 17//21
f 24//22 20//22 23//22
f 7//23 20//23 4//23
f 20//24 7//24 23//24
f 4//25 19//25 3//25
f 19//26 4//26 20//26
f 3//27 22//27 6//27
f 22//28 3//28 19//28
f 15//29 32//29 31//29
f 32//30 15//30 16//30
f 16//31 28//31 32//31
f 28//32 16//32 12//32
f 15//33 25//33 9//33
f 25//34 15//34 31//34
f 26//35 9//35 25//35
f 9//36 26//36 10//36
f 12//37 27//37 28//37
f 27//38 12//38 11//38
f 29//39 25//39 31//39
f 30//40 31//40 32//40
f 31//41 30//41 29//41
f 30//42 28//42 27//42
f 28//43 30//43 32//43
f 25//44 29//44 26//44
f 13//45 16//45 15//45
f 13//46 9//46 10//46
f 14//47 12//47 16//47
f 9//48 13//48 15//48
f 16//49 13//49 14//49
f 12//50 14//50 11//50
f 14//51 27//51 11//51
f 27//52 14//52 30//52
f 13//53 30//53 14//53
f 30//54 13//54 29//54
f 10//55 29//55 13//55
f 29//56 10//56 26//56
